Coordinates
version=1
nRows=9
nColumns=26
inDegrees=yes

Units are S.I. units (second, meters, Newtons, ...)
Angles are in degrees.

endheader
time	pelvis_tilt	pelvis_list	pelvis_rotation	pelvis_tx	pelvis_ty	pelvis_tz	hip_flexion_r	hip_adduction_r	hip_rotation_r	knee_angle_r	knee_angle_r_beta	ankle_angle_r	subtalar_angle_r	mtp_angle_r	hip_flexion_l	hip_adduction_l	hip_rotation_l	knee_angle_l	knee_angle_l_beta	ankle_angle_l	subtalar_angle_l	mtp_angle_l	lumbar_extension	lumbar_bending	lumbar_rotation
      0.00000000	      5.53739474	     -4.37264471	     -5.53978336	     -0.02360925	      0.98732793	      0.19241873	    -20.69967312	      4.56220406	      5.33084463	      7.27417039	      7.27417039	     10.45738045	      0.00000000	      0.00000000	     20.71845088	     -8.72516970	    -15.67263732	     13.32921959	     13.32921959	     -0.88397421	      0.00000000	      0.00000000	    -20.59071670	      4.53345444	      7.82597217
      0.00833333	      5.62195532	     -4.51958794	     -6.01896932	     -0.01331614	      0.98699355	      0.19213021	    -21.06482874	      4.41363853	      5.50776031	      7.96506038	      7.96506038	     10.21911424	      0.00000000	      0.00000000	     19.97358034	     -8.73044995	    -15.53923639	     13.21527474	     13.21527474	     -1.34642887	      0.00000000	      0.00000000	    -20.53918107	      4.38531496	      8.13964751
      0.01666667	      5.68258765	     -4.59594527	     -6.44918445	     -0.00292259	      0.98675812	      0.19161898	    -21.31356356	      4.19268120	      5.58140660	      8.80343141	      8.80343141	     10.07858140	      0.00000000	      0.00000000	     19.16928531	     -8.61305583	    -15.32788358	     12.74406335	     12.74406335	     -2.62046205	      0.00000000	      0.00000000	    -20.42462017	      4.19416120	      8.31424624
      0.02500000	      5.64221153	     -4.65132669	     -6.82439755	      0.00743434	      0.98657267	      0.19092738	    -21.31412907	      3.95588903	      5.52183611	      9.85160388	      9.85160388	      9.90479032	      0.00000000	      0.00000000	     18.50797271	     -8.48220826	    -14.97115443	     12.31974049	     12.31974049	     -4.23685614	      0.00000000	      0.00000000	    -20.17878418	      4.02474977	      8.38391037
      0.03333333	      5.55205515	     -4.74986923	     -7.07444933	      0.01788387	      0.98646057	      0.18993388	    -21.16015304	      3.79745566	      5.29438257	     11.08179338	     11.08179338	      9.74769406	      0.00000000	      0.00000000	     17.95058874	     -8.40069301	    -14.55672322	     11.96131862	     11.96131862	     -5.78120660	      0.00000000	      0.00000000	    -19.87151961	      3.95521760	      8.32615367
      0.04166667	      5.44644089	     -4.85503494	     -7.33886770	      0.02828334	      0.98644740	      0.18923761	    -20.86314212	      3.65489319	      5.11430393	     12.50772691	     12.50772691	      9.40785299	      0.00000000	      0.00000000	     17.50624125	     -8.45864517	    -14.47634200	     11.95394077	     11.95394077	     -6.69799544	      0.00000000	      0.00000000	    -19.55140281	      3.85405906	      8.28133302
      0.05000000	      5.42486993	     -4.85718943	     -7.59128396	      0.03854376	      0.98681714	      0.18872177	    -20.50415365	      3.41384449	      4.97864140	     14.13636953	     14.13636953	      8.98338264	      0.00000000	      0.00000000	     17.08378580	     -8.52637150	    -14.73498572	     12.30202791	     12.30202791	     -7.12706079	      0.00000000	      0.00000000	    -19.33440393	      3.58773299	      8.18498222
      0.05833333	      5.35953000	     -4.80232852	     -7.74494776	      0.04865484	      0.98742192	      0.18813104	    -19.89650894	      3.14696904	      4.67586915	     16.10120670	     16.10120670	      8.51700542	      0.00000000	      0.00000000	     16.88748399	     -8.57205278	    -15.00137954	     13.04599525	     13.04599525	     -6.96998243	      0.00000000	      0.00000000	    -19.08860015	      3.26808999	      8.00082447
      0.06666667	      5.24785243	     -4.69242252	     -7.78558224	      0.05858526	      0.98826151	      0.18729614	    -19.04442346	      2.85307455	      4.30360689	     18.34061692	     18.34061692	      7.86809424	      0.00000000	      0.00000000	     16.96638103	     -8.56059583	    -14.95298024	     14.24762936	     14.24762936	     -6.26554344	      0.00000000	      0.00000000	    -18.82371168	      2.93612733	      7.70829603
